<?xml version="1.0" standalone="no"?>
<!DOCTYPE svg PUBLIC "-//W3C//DTD SVG 20010904//EN"
 "http://www.w3.org/TR/2001/REC-SVG-20010904/DTD/svg10.dtd">
<svg version="1.0" xmlns="http://www.w3.org/2000/svg"
 width="512.000000pt" height="512.000000pt" viewBox="0 0 512.000000 512.000000"
 preserveAspectRatio="xMidYMid meet">

<g transform="translate(0.000000,512.000000) scale(0.100000,-0.100000)"
fill="#000000" stroke="none">
<path d="M430 5110 c-195 -34 -338 -161 -406 -360 -18 -53 -19 -123 -19 -2190
0 -2067 1 -2137 19 -2190 33 -96 67 -153 130 -216 63 -63 120 -97 216 -130 53
-18 123 -19 2190 -19 2067 0 2137 1 2190 19 96 33 153 67 216 130 63 63 97
120 130 216 18 53 19 123 19 2190 0 2067 -1 2137 -19 2190 -33 96 -67 153
-130 216 -63 62 -107 90 -206 128 l-55 21 -2115 1 c-1163 1 -2135 -2 -2160 -6z
m470 -1985 c192 -51 352 -215 405 -415 19 -72 19 -230 0 -304 -21 -81 -76
-182 -136 -249 -164 -184 -419 -234 -644 -126 -97 46 -209 158 -259 258 -163
322 -5 713 333 828 79 27 216 31 301 8z m639 -4 c10 -10 74 -189 151 -422 72
-222 135 -407 139 -411 4 -5 17 27 30 70 92 319 225 740 238 754 32 35 101 30
122 -11 10 -17 45 -132 207 -663 26 -87 50 -158 54 -158 3 0 64 181 135 401
72 221 138 415 148 432 17 27 22 29 58 24 45 -6 79 -31 79 -58 0 -28 -348
-1051 -362 -1065 -7 -8 -28 -16 -45 -20 -50 -10 -74 23 -116 156 -19 63 -77
249 -128 413 -51 164 -96 292 -99 285 -4 -7 -53 -161 -109 -343 -56 -181 -114
-365 -127 -408 -26 -79 -50 -107 -90 -107 -45 0 -63 31 -123 210 -33 96 -112
330 -176 519 -79 234 -114 352 -110 368 6 24 52 52 88 53 9 0 25 -8 36 -19z
m2103 -10 c76 -30 150 -98 184 -169 36 -74 46 -231 20 -310 -25 -74 -70 -135
-129 -175 -83 -56 -136 -67 -334 -67 l-173 0 0 -184 c0 -154 -3 -187 -16 -200
-20 -20 -107 -22 -123 -2 -8 9 -10 165 -9 562 l3 548 25 14 c19 10 80 12 260
9 215 -3 240 -5 292 -26z m1229 10 c32 -26 32 -86 0 -112 -21 -17 -42 -19
-202 -19 l-179 0 0 -472 c0 -360 -3 -479 -13 -498 -10 -21 -21 -25 -64 -28
-87 -5 -83 -31 -83 520 l0 477 -191 3 c-175 3 -192 5 -205 22 -28 39 -13 105
26 119 8 3 211 6 451 6 413 1 438 0 460 -18z"/>
<path d="M677 2980 c-273 -69 -402 -400 -254 -652 113 -193 368 -254 553 -133
136 89 213 269 184 433 -26 148 -131 285 -257 332 -66 25 -170 34 -226 20z"/>
<path d="M3212 2763 l3 -218 165 0 c106 1 178 5 202 13 156 54 170 324 21 398
-32 16 -66 19 -216 22 l-177 3 2 -218z"/>
</g>
</svg>
